<svg width="48" height="48" viewBox="0 0 48 48" fill="none" xmlns="http://www.w3.org/2000/svg">
<rect x="9" y="9" width="30" height="31" fill="black"/>
<path fill-rule="evenodd" clip-rule="evenodd" d="M0 24C0 10.7452 10.7452 0 24 0C37.2548 0 48 10.7452 48 24C48 37.2548 37.2548 48 24 48C10.7452 48 0 37.2548 0 24ZM22.2392 14.8298L22.2393 9.6H15.9713C12.4582 9.6 9.6 12.4582 9.6 15.9713V22.0007H14.8298V15.9713C14.8298 15.3417 15.3417 14.8298 15.9713 14.8298H22.2392ZM38.4 31.8484V25.819H33.1702V31.8484C33.1702 32.4779 32.6583 32.9899 32.0287 32.9899H25.7607V38.2197H32.0287C35.5418 38.2197 38.4 35.3614 38.4 31.8484Z" fill="black"/>
<path d="M20.7143 23H29.2857H20.7143ZM20.7143 28.3333H29.2857H20.7143ZM32.1429 35H17.8571C17.0994 35 16.3727 34.7191 15.8368 34.2189C15.301 33.7188 15 33.0405 15 32.3333V13.6667C15 12.9594 15.301 12.2811 15.8368 11.7811C16.3727 11.2809 17.0994 11 17.8571 11H25.8371C26.216 11.0001 26.5793 11.1406 26.8471 11.3907L34.5814 18.6093C34.8494 18.8593 34.9999 19.1984 35 19.552V32.3333C35 33.0405 34.699 33.7188 34.1631 34.2189C33.6273 34.7191 32.9006 35 32.1429 35Z" stroke="#F3C522" stroke-width="2" stroke-linecap="round" stroke-linejoin="round"/>
</svg>
